<?xml version="1.0" encoding="UTF-8" standalone="no"?>
<svg
   xmlns="http://www.w3.org/2000/svg"
   xmlns:xlink="http://www.w3.org/1999/xlink"
   viewBox="0 0 200 200"
   version="1.1">
  <def>
    <path id="mandolin"
      d="m 0,10
         l 4,1
         l 3,22
         l -4,3
         l 0,22
         c 0,2 40,48 -2,50
         l -2,0
      "
      fill="blue"/>
    <path
       id="pineapple"
       d="m 0,10 
          l 7,3
          l -1,12
          l -2,3 1,28 
          c 7,2 9,6 10,20 
          c 2,14 -3,20 -16,20"
       fill="violet"/>
    <path
       id="banjo"
       d="m 0 10       
          l 10 2       
          l -2 18       
          l -4 4       
          l 0 80       
          a 35 35 0 1,1 -11 0       
          l 0 -50       
          l 2 -5       
          l 0 -25       
          l -4 -4       
          l -2 -18       
          l 10 -2       
          "
       fill="orange" />
    <path
       id="guitar"
       d="m 0 10           
          l 8 1           
          l 2 20          
          l -4 3          
          l 0 60          
          c 35 0, 20 20, 20 30          
          s 50 68, -26 70          
          "
       fill="red" />
    <path id="bass"
        d="m 0 10
           a 4,4 0 1,1 8,8
           c -3,3 4,8 3,20
           a 5,5 0 0,0 -5,5
           l 1,85
           c 5,0 10,0, 10,-10
           c 5,-5 10,5 5,20
           s 7,10 7,30
           c 0,15 -20,15 -26,15
           s -26,0 -26,-15
           s 8,-20 8,-30
           s -7,-20 -3,-30
           c 8,-10 5,12 16,10
           l 1, -73
           c 0,-5 -7,0 -4,-10
        "
        fill="gold"/>
    <path id="flying-v"
      d="m 0,10
         c 2,0 3,3 3,3
         l 7,21
         c -4,1 -5,5 -5,5
         l 0,60
         c 0,3 3,0 5,5
         l 25,60
         c 1,5 -8,8 -10,5
         l -20 -20
         c -2,-2 0,-2 -6,-3
      "
      fill="lime"/>
    <path id="uke"
      d="m 0,10
      l 7,4
      l -1,15
      l -2,3
      l 0,35
      c 8,0 8,10 8,10
      c 0,6 -4,5 -4,8
      c 0,5 8,5 8,15
      c 0,12 -12,12 -18,12
      "
      fill="cyan"
      />
  </def>

  <use xlink:href="#pineapple" transform="translate(180)"/>
  <use xlink:href="#pineapple" transform="scale(-1, 1) translate(-180)"/>
  <use xlink:href="#mandolin" transform="translate(158)"/>
  <use xlink:href="#mandolin" transform="scale(-1, 1) translate(-158)"/>
  <use xlink:href="#uke" transform="translate(135)"/>
  <use xlink:href="#uke" transform="scale(-1, 1) translate(-135)"/>
  <use xlink:href="#flying-v" transform="translate(110)"/>
  <use xlink:href="#flying-v" transform="scale(-1, 1) translate(-110)"/>
  <use xlink:href="#bass" transform="translate(80)"/>
  <use xlink:href="#banjo" transform="translate(50)"/>
  <use xlink:href="#guitar" transform="translate(20)"/>
  <use xlink:href="#guitar" transform="scale(-1, 1) translate(-20)"/>

  <rect
     x="-100"
     y="0"
     width="100"
     height="200"
     fill="white"
     stroke="none"
     id="rect3396" />
  <_rect
     width="200"
     height="200"
     fill="none"
     stroke="black"
     id="rect3398" />
</svg>
