<?xml version="1.0" encoding="UTF-8" standalone="no"?>
<svg viewBox="0 0 200 200" version="1.1"
  xmlns="http://www.w3.org/2000/svg"
  xmlns:xlink= "http://www.w3.org/1999/xlink">
  <style>
    .bar {
      stroke: black;
      stroke-width: 2;
    }
    .neck {
      stroke: black;
      stroke-width: 2;
    }
    text {
       font-size: 40px;
    }
  </style>
  <defs>
    <ellipse id="note" cx="0" cy="0" rx="10" ry="5" transform="scale(1.4)rotate(-20)"/>
  </defs>
  <path
      id="galaxy"
      d="m0 89c0-39.4 31.6-77 74-77 33.8 0 61 23.2 61 58 0 20.8-16.2 44-41 44-22 0-34-14-34-31-3.6 0-6 6-6 12 0 16.6 19.8 34 43 34 30.4 0 62-27.8 62-69 0-25.6-12.4-47-23-60 13 11 32 32.8 32 67 0 39.4-31.6 77-74 77-33.8 0-61-23.2-61-58 0-20.8 16.2-44 41-44 22 0 34 14 34 31 3.6 0 6-6 6-12 0-16.6-19.8-34-43-34-30.4 0-62 27.8-62 69 0 25.6 12.4 47 23 60-13-11-32-32.8-32-67z"
      transform="scale(1.19, 1.3) scale(0.5, 0.8) translate(20, 20)"
  />
  <line class="bar" x1="0" x2="200" y1="40" y2="40"/>
  <line class="bar" x1="0" x2="200" y1="70" y2="70"/>
  <line class="bar" x1="0" x2="200" y1="100" y2="100"/>
  <line class="bar" x1="0" x2="200" y1="130" y2="130"/>
  <line class="bar" x1="0" x2="200" y1="160" y2="160"/>

  <_rect fill="none" stroke="black" stroke-width="2" width="200" height="200"/>

  <use xlink:href="#note" transform="translate(170, 100)"/>
  <text x="125" y="128" fill="black">♭</text>
  <use xlink:href="#note" transform="translate(170, 115)"/>
  <use xlink:href="#note" transform="translate(170, 130)"/>
</svg>
